<mxfile host="Electron" modified="2025-04-08T07:06:12.466Z" agent="Mozilla/5.0 (Windows NT 10.0; Win64; x64) AppleWebKit/537.36 (KHTML, like Gecko) draw.io/23.1.5 Chrome/120.0.6099.109 Electron/28.1.0 Safari/537.36" etag="VkFLMVlwv-hHlJkuZzI-" version="23.1.5" type="device">
  <diagram name="第 1 页" id="V5EbNqes7gqMUMs8YMRe">
    <mxGraphModel dx="1221" dy="717" grid="1" gridSize="10" guides="1" tooltips="1" connect="1" arrows="1" fold="1" page="1" pageScale="1" pageWidth="1169" pageHeight="827" math="0" shadow="0">
      <root>
        <mxCell id="0" />
        <mxCell id="1" parent="0" />
        <mxCell id="z3aPTN1xRcMKhVOIMbqU-1" value="" style="rounded=0;whiteSpace=wrap;html=1;fillColor=#333333;" parent="1" vertex="1">
          <mxGeometry x="110" y="360" width="960" height="190" as="geometry" />
        </mxCell>
        <mxCell id="z3aPTN1xRcMKhVOIMbqU-2" value="" style="rounded=0;whiteSpace=wrap;html=1;" parent="1" vertex="1">
          <mxGeometry x="120" y="380" width="730" height="150" as="geometry" />
        </mxCell>
        <mxCell id="z3aPTN1xRcMKhVOIMbqU-9" value="" style="group" parent="1" vertex="1" connectable="0">
          <mxGeometry x="870" y="380" width="190" height="40" as="geometry" />
        </mxCell>
        <mxCell id="z3aPTN1xRcMKhVOIMbqU-3" value="" style="rounded=0;whiteSpace=wrap;html=1;fillColor=#ffcc99;strokeColor=#36393d;" parent="z3aPTN1xRcMKhVOIMbqU-9" vertex="1">
          <mxGeometry width="190" height="40" as="geometry" />
        </mxCell>
        <mxCell id="z3aPTN1xRcMKhVOIMbqU-5" value="转" style="ellipse;whiteSpace=wrap;html=1;aspect=fixed;" parent="z3aPTN1xRcMKhVOIMbqU-9" vertex="1">
          <mxGeometry x="10.555555555555555" y="5" width="30" height="30" as="geometry" />
        </mxCell>
        <mxCell id="z3aPTN1xRcMKhVOIMbqU-6" value="翻" style="ellipse;whiteSpace=wrap;html=1;aspect=fixed;" parent="z3aPTN1xRcMKhVOIMbqU-9" vertex="1">
          <mxGeometry x="53" y="5" width="30" height="30" as="geometry" />
        </mxCell>
        <mxCell id="z3aPTN1xRcMKhVOIMbqU-7" value="存" style="ellipse;whiteSpace=wrap;html=1;aspect=fixed;" parent="z3aPTN1xRcMKhVOIMbqU-9" vertex="1">
          <mxGeometry x="95" y="5" width="30" height="30" as="geometry" />
        </mxCell>
        <mxCell id="z3aPTN1xRcMKhVOIMbqU-8" value="改" style="ellipse;whiteSpace=wrap;html=1;aspect=fixed;" parent="z3aPTN1xRcMKhVOIMbqU-9" vertex="1">
          <mxGeometry x="137.22222222222223" y="4" width="30" height="30" as="geometry" />
        </mxCell>
        <mxCell id="z3aPTN1xRcMKhVOIMbqU-18" value="" style="group" parent="1" vertex="1" connectable="0">
          <mxGeometry x="870" y="440" width="90" height="90" as="geometry" />
        </mxCell>
        <mxCell id="z3aPTN1xRcMKhVOIMbqU-12" value="" style="rounded=0;whiteSpace=wrap;html=1;fillColor=#ffcc99;strokeColor=#36393d;" parent="z3aPTN1xRcMKhVOIMbqU-18" vertex="1">
          <mxGeometry width="90" height="90" as="geometry" />
        </mxCell>
        <mxCell id="z3aPTN1xRcMKhVOIMbqU-17" value="" style="group" parent="z3aPTN1xRcMKhVOIMbqU-18" vertex="1" connectable="0">
          <mxGeometry x="10" y="11.25" width="70" height="68.75" as="geometry" />
        </mxCell>
        <mxCell id="z3aPTN1xRcMKhVOIMbqU-13" value="top" style="ellipse;whiteSpace=wrap;html=1;aspect=fixed;" parent="z3aPTN1xRcMKhVOIMbqU-17" vertex="1">
          <mxGeometry width="30" height="30" as="geometry" />
        </mxCell>
        <mxCell id="z3aPTN1xRcMKhVOIMbqU-14" value="up" style="ellipse;whiteSpace=wrap;html=1;aspect=fixed;" parent="z3aPTN1xRcMKhVOIMbqU-17" vertex="1">
          <mxGeometry x="40" width="30" height="30" as="geometry" />
        </mxCell>
        <mxCell id="z3aPTN1xRcMKhVOIMbqU-15" value="bottom" style="ellipse;whiteSpace=wrap;html=1;aspect=fixed;" parent="z3aPTN1xRcMKhVOIMbqU-17" vertex="1">
          <mxGeometry y="38.75" width="30" height="30" as="geometry" />
        </mxCell>
        <mxCell id="z3aPTN1xRcMKhVOIMbqU-16" value="dowm" style="ellipse;whiteSpace=wrap;html=1;aspect=fixed;" parent="z3aPTN1xRcMKhVOIMbqU-17" vertex="1">
          <mxGeometry x="40" y="38.75" width="30" height="30" as="geometry" />
        </mxCell>
        <mxCell id="z3aPTN1xRcMKhVOIMbqU-19" value="" style="rounded=0;whiteSpace=wrap;html=1;fillColor=#ffcc99;strokeColor=#36393d;" parent="1" vertex="1">
          <mxGeometry x="970" y="440" width="90" height="90" as="geometry" />
        </mxCell>
        <mxCell id="z3aPTN1xRcMKhVOIMbqU-20" value="s/re" style="ellipse;whiteSpace=wrap;html=1;aspect=fixed;" parent="1" vertex="1">
          <mxGeometry x="980" y="450" width="30" height="30" as="geometry" />
        </mxCell>
        <mxCell id="z3aPTN1xRcMKhVOIMbqU-21" value="退出" style="rounded=1;whiteSpace=wrap;html=1;" parent="1" vertex="1">
          <mxGeometry x="980" y="490" width="70" height="30" as="geometry" />
        </mxCell>
        <mxCell id="z3aPTN1xRcMKhVOIMbqU-22" value="input" style="ellipse;whiteSpace=wrap;html=1;aspect=fixed;" parent="1" vertex="1">
          <mxGeometry x="1020" y="450" width="30" height="30" as="geometry" />
        </mxCell>
        <mxCell id="iYKhy5-TffIa7aATphuN-3" style="edgeStyle=orthogonalEdgeStyle;rounded=0;orthogonalLoop=1;jettySize=auto;html=1;entryX=0;entryY=0.5;entryDx=0;entryDy=0;" parent="1" source="z3aPTN1xRcMKhVOIMbqU-23" target="iYKhy5-TffIa7aATphuN-2" edge="1">
          <mxGeometry relative="1" as="geometry" />
        </mxCell>
        <mxCell id="z3aPTN1xRcMKhVOIMbqU-23" value="" style="rounded=0;whiteSpace=wrap;html=1;" parent="1" vertex="1">
          <mxGeometry x="120" y="590" width="120" height="140" as="geometry" />
        </mxCell>
        <mxCell id="iYKhy5-TffIa7aATphuN-8" style="edgeStyle=orthogonalEdgeStyle;rounded=0;orthogonalLoop=1;jettySize=auto;html=1;exitX=1;exitY=0.75;exitDx=0;exitDy=0;entryX=0;entryY=0.5;entryDx=0;entryDy=0;" parent="1" source="iYKhy5-TffIa7aATphuN-1" target="iYKhy5-TffIa7aATphuN-6" edge="1">
          <mxGeometry relative="1" as="geometry" />
        </mxCell>
        <mxCell id="iYKhy5-TffIa7aATphuN-9" style="edgeStyle=orthogonalEdgeStyle;rounded=0;orthogonalLoop=1;jettySize=auto;html=1;exitX=1;exitY=1;exitDx=0;exitDy=0;entryX=0;entryY=0.5;entryDx=0;entryDy=0;" parent="1" source="iYKhy5-TffIa7aATphuN-1" target="iYKhy5-TffIa7aATphuN-7" edge="1">
          <mxGeometry relative="1" as="geometry">
            <Array as="points">
              <mxPoint x="270" y="690" />
              <mxPoint x="270" y="770" />
            </Array>
          </mxGeometry>
        </mxCell>
        <mxCell id="iYKhy5-TffIa7aATphuN-1" value="&lt;font style=&quot;font-size: 20px;&quot;&gt;音频来源&lt;/font&gt;" style="text;html=1;align=center;verticalAlign=middle;whiteSpace=wrap;rounded=0;" parent="1" vertex="1">
          <mxGeometry x="130" y="630" width="110" height="60" as="geometry" />
        </mxCell>
        <mxCell id="iYKhy5-TffIa7aATphuN-5" value="" style="edgeStyle=orthogonalEdgeStyle;rounded=0;orthogonalLoop=1;jettySize=auto;html=1;" parent="1" source="iYKhy5-TffIa7aATphuN-2" target="iYKhy5-TffIa7aATphuN-4" edge="1">
          <mxGeometry relative="1" as="geometry" />
        </mxCell>
        <mxCell id="iYKhy5-TffIa7aATphuN-2" value="实时音频" style="rounded=1;whiteSpace=wrap;html=1;" parent="1" vertex="1">
          <mxGeometry x="320" y="580" width="120" height="60" as="geometry" />
        </mxCell>
        <mxCell id="iYKhy5-TffIa7aATphuN-4" value="设备音响输入&lt;br&gt;外接设备输入：注意多输入设备选择&lt;br&gt;&lt;div style=&quot;&quot;&gt;&lt;br&gt;&lt;/div&gt;" style="rounded=1;whiteSpace=wrap;html=1;align=left;" parent="1" vertex="1">
          <mxGeometry x="520" y="580" width="210" height="60" as="geometry" />
        </mxCell>
        <mxCell id="iYKhy5-TffIa7aATphuN-12" style="edgeStyle=orthogonalEdgeStyle;rounded=0;orthogonalLoop=1;jettySize=auto;html=1;entryX=0;entryY=0.5;entryDx=0;entryDy=0;" parent="1" source="iYKhy5-TffIa7aATphuN-6" target="iYKhy5-TffIa7aATphuN-14" edge="1">
          <mxGeometry relative="1" as="geometry">
            <mxPoint x="700" y="690" as="targetPoint" />
            <Array as="points">
              <mxPoint x="570" y="700" />
              <mxPoint x="570" y="700" />
            </Array>
          </mxGeometry>
        </mxCell>
        <mxCell id="iYKhy5-TffIa7aATphuN-6" value="音频文件" style="rounded=1;whiteSpace=wrap;html=1;" parent="1" vertex="1">
          <mxGeometry x="320" y="660" width="120" height="60" as="geometry" />
        </mxCell>
        <mxCell id="iYKhy5-TffIa7aATphuN-11" style="edgeStyle=orthogonalEdgeStyle;rounded=0;orthogonalLoop=1;jettySize=auto;html=1;entryX=0;entryY=0.5;entryDx=0;entryDy=0;" parent="1" source="iYKhy5-TffIa7aATphuN-7" target="iYKhy5-TffIa7aATphuN-10" edge="1">
          <mxGeometry relative="1" as="geometry" />
        </mxCell>
        <mxCell id="iYKhy5-TffIa7aATphuN-7" value="视频" style="rounded=1;whiteSpace=wrap;html=1;" parent="1" vertex="1">
          <mxGeometry x="320" y="740" width="120" height="60" as="geometry" />
        </mxCell>
        <mxCell id="iYKhy5-TffIa7aATphuN-13" style="edgeStyle=orthogonalEdgeStyle;rounded=0;orthogonalLoop=1;jettySize=auto;html=1;entryX=0.5;entryY=1;entryDx=0;entryDy=0;" parent="1" source="iYKhy5-TffIa7aATphuN-10" target="iYKhy5-TffIa7aATphuN-14" edge="1">
          <mxGeometry relative="1" as="geometry">
            <mxPoint x="750" y="710" as="targetPoint" />
          </mxGeometry>
        </mxCell>
        <mxCell id="iYKhy5-TffIa7aATphuN-10" value="音频文件" style="rounded=1;whiteSpace=wrap;html=1;" parent="1" vertex="1">
          <mxGeometry x="500" y="740" width="120" height="60" as="geometry" />
        </mxCell>
        <mxCell id="iYKhy5-TffIa7aATphuN-14" value="whisper" style="rounded=1;whiteSpace=wrap;html=1;" parent="1" vertex="1">
          <mxGeometry x="650" y="670" width="120" height="60" as="geometry" />
        </mxCell>
        <mxCell id="iYKhy5-TffIa7aATphuN-17" value="" style="edgeStyle=orthogonalEdgeStyle;rounded=0;orthogonalLoop=1;jettySize=auto;html=1;" parent="1" source="iYKhy5-TffIa7aATphuN-15" target="iYKhy5-TffIa7aATphuN-16" edge="1">
          <mxGeometry relative="1" as="geometry" />
        </mxCell>
        <mxCell id="iYKhy5-TffIa7aATphuN-18" value="" style="edgeStyle=orthogonalEdgeStyle;rounded=0;orthogonalLoop=1;jettySize=auto;html=1;" parent="1" source="iYKhy5-TffIa7aATphuN-15" target="iYKhy5-TffIa7aATphuN-16" edge="1">
          <mxGeometry relative="1" as="geometry" />
        </mxCell>
        <mxCell id="iYKhy5-TffIa7aATphuN-19" style="edgeStyle=orthogonalEdgeStyle;rounded=0;orthogonalLoop=1;jettySize=auto;html=1;entryX=0.008;entryY=0.622;entryDx=0;entryDy=0;entryPerimeter=0;" parent="1" source="iYKhy5-TffIa7aATphuN-15" target="iYKhy5-TffIa7aATphuN-20" edge="1">
          <mxGeometry relative="1" as="geometry">
            <mxPoint x="1030" y="760" as="targetPoint" />
          </mxGeometry>
        </mxCell>
        <mxCell id="iYKhy5-TffIa7aATphuN-15" value="翻译模型" style="rounded=1;whiteSpace=wrap;html=1;" parent="1" vertex="1">
          <mxGeometry x="890" y="670" width="120" height="60" as="geometry" />
        </mxCell>
        <mxCell id="iYKhy5-TffIa7aATphuN-16" value="实时翻译" style="rounded=1;whiteSpace=wrap;html=1;" parent="1" vertex="1">
          <mxGeometry x="1050" y="610" width="120" height="60" as="geometry" />
        </mxCell>
        <mxCell id="iYKhy5-TffIa7aATphuN-20" value="基于转录翻译" style="rounded=1;whiteSpace=wrap;html=1;" parent="1" vertex="1">
          <mxGeometry x="1050" y="720" width="120" height="60" as="geometry" />
        </mxCell>
      </root>
    </mxGraphModel>
  </diagram>
</mxfile>
